<svg width="89" height="11" viewBox="0 0 89 11" fill="none" xmlns="http://www.w3.org/2000/svg">
<path d="M0.292236 10.4239C0.251221 10.3829 0.230713 10.2957 0.230713 10.1624C0.230713 9.96759 0.246094 9.87018 0.276855 9.87018C0.399902 9.87018 0.579346 9.83429 0.815186 9.76251C1.06128 9.69073 1.28687 9.59845 1.49194 9.48566C1.70728 9.36261 1.82007 9.22931 1.83032 9.08575L1.89185 8.34747C2.00464 6.51202 2.07129 4.98419 2.0918 3.76398C2.1123 2.54376 2.13794 1.7337 2.1687 1.3338C2.1687 1.22101 2.15332 1.12872 2.12256 1.05695C2.10205 0.995422 2.01489 0.944153 1.86108 0.903137C1.70728 0.851868 1.54321 0.810852 1.3689 0.78009C1.20483 0.749329 1.07666 0.733948 0.984375 0.733948C0.943359 0.733948 0.922852 0.626282 0.922852 0.41095C0.922852 0.298157 0.943359 0.221252 0.984375 0.180237C1.08691 0.180237 1.24072 0.190491 1.4458 0.210999C1.66113 0.221252 1.88672 0.236633 2.12256 0.257141C2.36865 0.267395 2.57886 0.272522 2.75317 0.272522C2.89673 0.272522 3.07617 0.267395 3.2915 0.257141C3.51709 0.236633 3.73242 0.221252 3.9375 0.210999C4.14258 0.190491 4.28613 0.180237 4.36816 0.180237C4.41943 0.344299 4.54761 0.667297 4.75269 1.14923C4.96802 1.63116 5.26025 2.27203 5.62939 3.07184C5.99854 3.8819 6.32153 4.59967 6.59839 5.22516C6.87524 5.84039 7.10083 6.3736 7.27515 6.82477H7.30591C7.32642 6.82477 7.33667 6.81964 7.33667 6.80939C7.72632 5.83527 8.08008 4.94318 8.39795 4.13312C8.71582 3.32306 8.98755 2.60016 9.21313 1.96442L9.7207 0.24176C9.81299 0.252014 9.96167 0.262268 10.1667 0.272522C10.3821 0.272522 10.6487 0.272522 10.9666 0.272522L12.9045 0.180237C12.9456 0.231506 12.9661 0.313538 12.9661 0.426331C12.9661 0.641663 12.9404 0.749329 12.8892 0.749329H12.8738C12.6174 0.749329 12.4021 0.810852 12.2278 0.933899C12.0637 1.04669 11.9919 1.2569 12.0125 1.56451L12.3201 8.02448C12.3508 8.63971 12.4277 9.11139 12.5508 9.43951C12.5815 9.50104 12.6533 9.56256 12.7661 9.62408C12.8892 9.68561 13.0173 9.742 13.1506 9.79327C13.2839 9.83429 13.3813 9.8548 13.4429 9.8548C13.4839 9.8548 13.5044 9.95734 13.5044 10.1624C13.5044 10.2547 13.4941 10.3419 13.4736 10.4239C13.4019 10.4136 13.2429 10.3983 12.9968 10.3777C12.7507 10.3675 12.4893 10.3521 12.2124 10.3316C11.9355 10.3111 11.7048 10.3008 11.5203 10.3008C11.3357 10.3008 11.0845 10.3111 10.7666 10.3316C10.4487 10.3521 10.1462 10.3675 9.85913 10.3777C9.58228 10.3983 9.39258 10.4136 9.29004 10.4239C9.23877 10.3726 9.21313 10.2906 9.21313 10.1778C9.21313 9.96246 9.22852 9.8548 9.25928 9.8548C9.34131 9.8548 9.44897 9.83429 9.58228 9.79327C9.71558 9.742 9.84375 9.68561 9.9668 9.62408C10.1001 9.55231 10.1821 9.48566 10.2129 9.42413C10.2949 9.26007 10.3359 9.11652 10.3359 8.99347C10.3359 8.88068 10.3308 8.74738 10.3206 8.59357C10.3206 8.43976 10.3154 8.27057 10.3052 8.086L10.1821 4.17926C10.1411 3.49225 10.1001 3.14874 10.0591 3.14874C10.0386 3.14874 10.0129 3.18463 9.98218 3.25641L7.32129 9.88556C7.28027 9.9881 7.19824 10.1009 7.0752 10.2239C6.95215 10.3367 6.8291 10.3931 6.70605 10.3931C6.6958 10.3931 6.64966 10.3829 6.56763 10.3624L3.18384 2.76422L2.92236 8.68585C2.92236 8.82941 2.92236 8.94733 2.92236 9.03961C2.92236 9.1319 2.92749 9.19855 2.93774 9.23956C2.95825 9.30109 3.03003 9.36774 3.15308 9.43951C3.28638 9.51129 3.44019 9.57794 3.6145 9.63947C3.78882 9.70099 3.95288 9.75226 4.10669 9.79327C4.27075 9.83429 4.38354 9.8548 4.44507 9.8548C4.48608 9.8548 4.50659 9.95734 4.50659 10.1624C4.50659 10.2547 4.49634 10.3419 4.47583 10.4239C3.8606 10.4239 3.39404 10.4188 3.07617 10.4085C2.76855 10.3983 2.5481 10.388 2.41479 10.3777C2.28149 10.3675 2.18408 10.3624 2.12256 10.3624C2.06104 10.3521 1.98413 10.347 1.89185 10.347C1.79956 10.347 1.6355 10.3521 1.39966 10.3624C1.16382 10.3726 0.794678 10.3931 0.292236 10.4239ZM14.4272 10.4239C14.3862 10.3829 14.3657 10.2957 14.3657 10.1624C14.3657 9.95734 14.3862 9.8548 14.4272 9.8548C14.5093 9.8548 14.6272 9.83942 14.781 9.80865C14.9348 9.77789 15.0784 9.73688 15.2117 9.68561C15.345 9.62408 15.4219 9.56769 15.4424 9.51642C15.5039 9.28058 15.5347 8.82941 15.5347 8.1629V2.34894C15.5347 1.77472 15.5039 1.37482 15.4424 1.14923C15.4219 1.08771 15.3398 1.02618 15.1963 0.964661C15.063 0.892883 14.9194 0.836487 14.7656 0.795471C14.6118 0.744202 14.4939 0.718567 14.4119 0.718567C14.3708 0.718567 14.3503 0.626282 14.3503 0.441711C14.3503 0.277649 14.3657 0.180237 14.3965 0.149475C14.8066 0.169983 15.1963 0.190491 15.5654 0.210999C15.9448 0.221252 16.3088 0.226379 16.6575 0.226379C17.1086 0.226379 17.9033 0.210999 19.0415 0.180237C19.6157 0.169983 20.1182 0.164856 20.5488 0.164856C20.9795 0.154602 21.3384 0.149475 21.6255 0.149475C21.6357 0.200745 21.6768 0.416077 21.7485 0.795471C21.8203 1.17487 21.928 1.71832 22.0715 2.42584C22.0203 2.47711 21.9023 2.50275 21.7178 2.50275C21.605 2.50275 21.5332 2.46686 21.5024 2.39508C21.3794 2.12848 21.1948 1.89264 20.9487 1.68756C20.7129 1.47223 20.4514 1.30304 20.1643 1.17999C19.8875 1.04669 19.6157 0.980042 19.3491 0.980042H18.7646C18.1084 0.980042 17.7751 1.04669 17.7649 1.17999C17.7444 1.30304 17.7239 1.4671 17.7034 1.67218C17.6931 1.867 17.688 2.10284 17.688 2.3797V4.74835C17.688 4.80988 17.9084 4.84064 18.3494 4.84064H19.1646C19.8105 4.84064 20.1592 4.82013 20.2104 4.77911C20.2617 4.72784 20.3027 4.57916 20.3335 4.33307C20.354 4.16901 20.3848 4.02032 20.4258 3.88702C20.436 3.81525 20.5129 3.77936 20.6565 3.77936C20.8308 3.77936 20.9436 3.80499 20.9949 3.85626V6.76324C20.9539 6.80426 20.8462 6.82477 20.6719 6.82477C20.5386 6.82477 20.4565 6.78375 20.4258 6.70172C20.3027 6.30182 20.2207 6.05573 20.1797 5.96344C20.1387 5.89166 20.1079 5.8609 20.0874 5.87115C20.0771 5.87115 20.0464 5.85065 19.9951 5.80963C19.8516 5.7276 19.4517 5.68658 18.7954 5.68658C18.0571 5.68658 17.688 5.73273 17.688 5.82501V8.19366C17.688 8.6756 17.729 9.03961 17.811 9.28571C17.8521 9.44977 18.2007 9.5318 18.8569 9.5318H19.2568C19.8926 9.5318 20.4668 9.3985 20.9795 9.1319C21.1538 9.03961 21.3486 8.8653 21.564 8.60895C21.7896 8.3526 21.9639 8.06549 22.0869 7.74762C22.1074 7.6861 22.1792 7.65533 22.3022 7.65533C22.5483 7.65533 22.7021 7.6861 22.7637 7.74762C22.251 9.16266 21.9741 10.0445 21.9331 10.3931C21.6768 10.3931 21.3384 10.388 20.918 10.3777C20.5078 10.3777 20.0156 10.3726 19.4414 10.3624C18.8774 10.3521 18.3647 10.3419 17.9033 10.3316C17.4419 10.3111 17.0317 10.3111 16.6729 10.3316L14.4272 10.4239ZM32.8074 10.4393C32.6946 10.4393 32.5356 10.3214 32.3306 10.0855L26.0706 2.3028V8.19366C26.0706 8.73712 26.1116 9.10114 26.1936 9.28571C26.2551 9.3985 26.3782 9.50104 26.5627 9.59332C26.7473 9.67535 26.937 9.73688 27.1318 9.77789C27.3267 9.81891 27.4753 9.83942 27.5779 9.83942C27.5984 9.83942 27.6138 9.88556 27.624 9.97784C27.6343 10.0599 27.6394 10.147 27.6394 10.2393C27.6394 10.3316 27.6292 10.3931 27.6086 10.4239C27.1165 10.4239 26.696 10.4034 26.3474 10.3624C26.009 10.3214 25.7373 10.3008 25.5322 10.3008C25.2861 10.3008 25.0913 10.306 24.9478 10.3162C24.8042 10.3265 24.6401 10.3419 24.4556 10.3624C24.2812 10.3829 24.0044 10.4034 23.625 10.4239C23.5942 10.3931 23.5789 10.3008 23.5789 10.147C23.5789 9.95221 23.5942 9.8548 23.625 9.8548C23.8608 9.8548 24.1069 9.80865 24.3633 9.71637C24.6299 9.61383 24.8196 9.46515 24.9324 9.27032C25.0349 9.10626 25.0862 8.73199 25.0862 8.14752V2.10284C25.0862 1.56964 25.0093 1.20563 24.8555 1.0108C24.8247 0.959534 24.7273 0.918518 24.5632 0.887756C24.4094 0.846741 24.2402 0.815979 24.0557 0.795471C23.8813 0.764709 23.7429 0.749329 23.6404 0.749329C23.6199 0.749329 23.5994 0.708313 23.5789 0.626282C23.5686 0.54425 23.5635 0.457092 23.5635 0.364807C23.5737 0.262268 23.5891 0.200745 23.6096 0.180237L24.594 0.24176C24.8298 0.262268 25.04 0.277649 25.2246 0.287903C25.4194 0.298157 25.5835 0.303284 25.7168 0.303284C25.8911 0.303284 26.1013 0.29303 26.3474 0.272522C26.6038 0.252014 26.896 0.221252 27.2241 0.180237C27.4292 0.590393 27.7112 1.04156 28.0701 1.53375C28.4392 2.02594 28.8494 2.54889 29.3005 3.1026C29.762 3.64606 30.2336 4.21002 30.7156 4.79449C31.2078 5.37897 31.6743 5.96344 32.1152 6.54791C32.1255 6.5069 32.1306 6.43512 32.1306 6.33258C32.1409 6.23004 32.146 6.09161 32.146 5.9173V2.3028C32.146 1.70807 32.0793 1.33893 31.946 1.19537C31.8845 1.11334 31.7717 1.04156 31.6077 0.980042C31.4539 0.908264 31.2898 0.851868 31.1155 0.810852C30.9514 0.769836 30.8284 0.749329 30.7463 0.749329C30.7258 0.749329 30.7053 0.708313 30.6848 0.626282C30.6746 0.54425 30.6694 0.457092 30.6694 0.364807C30.6694 0.262268 30.6797 0.200745 30.7002 0.180237C31.1719 0.221252 31.5769 0.252014 31.9153 0.272522C32.2537 0.29303 32.5254 0.303284 32.7305 0.303284C32.9048 0.303284 33.1252 0.29303 33.3918 0.272522C33.6584 0.252014 33.9097 0.231506 34.1455 0.210999C34.3916 0.190491 34.5557 0.180237 34.6377 0.180237C34.6787 0.252014 34.6992 0.344299 34.6992 0.457092C34.6992 0.651917 34.6736 0.749329 34.6223 0.749329C34.0686 0.749329 33.6431 0.918518 33.3457 1.2569C33.2021 1.43121 33.1304 1.80548 33.1304 2.3797V8.22443C33.1304 8.409 33.1355 8.68073 33.1458 9.03961C33.156 9.3985 33.1714 9.84454 33.1919 10.3777C33.1509 10.4188 33.0227 10.4393 32.8074 10.4393ZM37.9907 10.4239C37.9497 10.3829 37.9292 10.3008 37.9292 10.1778C37.9292 9.96246 37.9446 9.8548 37.9753 9.8548C38.0574 9.8548 38.1753 9.83429 38.3291 9.79327C38.4829 9.75226 38.6265 9.70099 38.7598 9.63947C38.8931 9.57794 38.97 9.52155 38.9905 9.47028C39.0315 9.32672 39.0571 9.15753 39.0674 8.96271C39.0879 8.76788 39.0981 8.5423 39.0981 8.28595V2.71808C39.0981 1.91827 39.0571 1.44659 38.9751 1.30304L38.8982 1.16461C38.8572 1.1236 38.7239 1.09283 38.4983 1.07233C38.2727 1.04156 38.0112 1.02618 37.7139 1.02618C37.2935 1.02618 36.95 1.1441 36.6833 1.37994C36.4167 1.60553 36.2117 1.99005 36.0681 2.53351C36.0476 2.58478 35.9963 2.61041 35.9143 2.61041C35.6887 2.61041 35.54 2.57452 35.4683 2.50275L35.7605 -0.0043335C35.9861 0.046936 36.186 0.0879517 36.3604 0.118713C36.5347 0.149475 36.6885 0.164856 36.8218 0.164856C37.3447 0.164856 37.9036 0.180237 38.4983 0.210999C39.1033 0.24176 39.6672 0.257141 40.1902 0.257141C40.7131 0.257141 41.2771 0.24176 41.8821 0.210999C42.4871 0.180237 43.051 0.164856 43.574 0.164856C43.7073 0.164856 43.8611 0.149475 44.0354 0.118713C44.2097 0.0879517 44.4097 0.046936 44.6353 -0.0043335L44.9275 2.51813C44.8557 2.5899 44.707 2.62579 44.4814 2.62579C44.3994 2.62579 44.3481 2.60016 44.3276 2.54889C44.0713 1.53375 43.5227 1.02618 42.6819 1.02618C41.8616 1.02618 41.4258 1.11847 41.3745 1.30304C41.3335 1.44659 41.3027 1.63116 41.2822 1.85675C41.2617 2.08234 41.2515 2.35406 41.2515 2.67194V8.22443C41.2515 8.48077 41.2617 8.71149 41.2822 8.91656C41.3027 9.12164 41.3335 9.30621 41.3745 9.47028C41.395 9.51129 41.4668 9.56256 41.5898 9.62408C41.7231 9.68561 41.8616 9.742 42.0051 9.79327C42.1589 9.83429 42.2666 9.8548 42.3281 9.8548C42.3691 9.8548 42.3896 9.95221 42.3896 10.147C42.3896 10.2496 42.3794 10.3419 42.3589 10.4239C42.3179 10.4239 42.2205 10.4188 42.0667 10.4085C41.9128 10.3983 41.7026 10.3829 41.436 10.3624C41.1694 10.3419 40.9336 10.3265 40.7285 10.3162C40.5234 10.306 40.3542 10.3008 40.2209 10.3008C40.0364 10.3008 39.7852 10.3111 39.4673 10.3316C39.1494 10.3521 38.8469 10.3675 38.5598 10.3777C38.283 10.3983 38.0933 10.4136 37.9907 10.4239ZM44.02 10.4239C43.979 10.3829 43.9585 10.306 43.9585 10.1932C43.9585 9.97784 43.9688 9.87018 43.9893 9.87018C44.0713 9.87018 44.1943 9.84454 44.3584 9.79327C44.5225 9.742 44.6814 9.68048 44.8352 9.6087C44.9993 9.52667 45.1018 9.44977 45.1428 9.37799C45.2249 9.25494 45.312 9.10626 45.4043 8.93195C45.4966 8.74738 45.5632 8.59869 45.6042 8.4859L45.6812 8.30133L49.0803 0.487854C49.1931 0.221252 49.3828 0.0879517 49.6494 0.0879517C49.8032 0.0879517 49.9263 0.154602 50.0186 0.287903L53.1716 8.086C53.2639 8.32184 53.3511 8.54742 53.4331 8.76276C53.5254 8.96783 53.6074 9.16266 53.6792 9.34723C53.7202 9.44977 53.8125 9.54205 53.9561 9.62408C54.0996 9.69586 54.2534 9.75226 54.4175 9.79327C54.5918 9.83429 54.7251 9.8548 54.8174 9.8548C54.8584 9.8548 54.8789 9.94196 54.8789 10.1163C54.8789 10.2803 54.8687 10.3829 54.8481 10.4239L53.9099 10.3624C53.6125 10.3419 53.3562 10.3265 53.1409 10.3162C52.9255 10.2957 52.7512 10.2906 52.6179 10.3008L50.2954 10.4239C50.2544 10.3829 50.2339 10.2752 50.2339 10.1009C50.2339 9.93683 50.2544 9.8548 50.2954 9.8548C50.521 9.8548 50.7517 9.80865 50.9875 9.71637C51.2234 9.61383 51.3413 9.48053 51.3413 9.31647C51.3413 9.30621 51.3105 9.21393 51.249 9.03961C51.1978 8.8653 51.1003 8.61407 50.9568 8.28595L50.4954 7.16315C50.4543 7.12213 50.4185 7.10162 50.3877 7.10162C50.2852 7.09137 50.1108 7.08624 49.8647 7.08624C49.6187 7.08624 49.3008 7.08624 48.9111 7.08624C48.5728 7.08624 48.2703 7.08624 48.0037 7.08624C47.7473 7.08624 47.532 7.09137 47.3577 7.10162C47.3167 7.10162 47.2808 7.12726 47.25 7.17853L46.7424 8.34747C46.5681 8.75763 46.4656 9.05499 46.4348 9.23956C46.4143 9.42413 46.5066 9.56769 46.7117 9.67023C46.8962 9.76251 47.0552 9.81891 47.1885 9.83942C47.332 9.84967 47.4551 9.8548 47.5576 9.8548C47.5884 9.86505 47.6038 9.94708 47.6038 10.1009C47.6038 10.2342 47.5935 10.3419 47.573 10.4239C47.1116 10.3931 46.7732 10.3675 46.5579 10.347C46.3528 10.3265 46.199 10.3162 46.0964 10.3162C45.9939 10.306 45.8811 10.306 45.7581 10.3162C45.6453 10.3265 45.4607 10.3419 45.2043 10.3624C44.948 10.3726 44.5532 10.3931 44.02 10.4239ZM48.9111 6.16339C49.1162 6.16339 49.3059 6.16339 49.4802 6.16339C49.6648 6.15314 49.8391 6.14288 50.0032 6.13263L50.0493 6.05573L48.9419 3.30255L47.7422 6.05573C47.7422 6.09674 47.7524 6.11725 47.7729 6.11725C48.0806 6.14801 48.46 6.16339 48.9111 6.16339ZM55.325 10.4239C55.2839 10.3829 55.2634 10.2957 55.2634 10.1624C55.2634 9.95734 55.2839 9.8548 55.325 9.8548C55.407 9.8548 55.5249 9.83942 55.6787 9.80865C55.8325 9.77789 55.9761 9.73688 56.1094 9.68561C56.2427 9.62408 56.3196 9.56769 56.3401 9.51642C56.4016 9.28058 56.4324 8.82941 56.4324 8.1629V2.28741C56.4324 1.66193 56.3914 1.2774 56.3093 1.13385C56.2786 1.07233 56.1965 1.01593 56.0632 0.964661C55.9402 0.903137 55.812 0.851868 55.6787 0.810852C55.5454 0.769836 55.4377 0.749329 55.3557 0.749329C55.3147 0.749329 55.2942 0.66217 55.2942 0.487854C55.2942 0.303284 55.3044 0.200745 55.325 0.180237L57.5552 0.272522C57.6577 0.282776 57.8884 0.277649 58.2473 0.257141C58.6062 0.236633 59.0933 0.210999 59.7085 0.180237C59.7393 0.272522 59.7546 0.364807 59.7546 0.457092C59.7546 0.651917 59.7341 0.749329 59.6931 0.749329C59.6316 0.749329 59.5239 0.769836 59.3701 0.810852C59.2163 0.851868 59.0676 0.903137 58.9241 0.964661C58.7908 1.01593 58.7139 1.0672 58.6934 1.11847C58.6523 1.25177 58.6216 1.42609 58.6011 1.64142C58.5908 1.8465 58.5857 2.08234 58.5857 2.34894V8.17828C58.5857 8.67047 58.6267 9.03961 58.7087 9.28571C58.7498 9.44977 59.0984 9.5318 59.7546 9.5318H60.1545C60.7903 9.5318 61.3645 9.3985 61.8772 9.1319C62.0515 9.03961 62.2463 8.8653 62.4617 8.60895C62.6873 8.3526 62.8616 8.06549 62.9846 7.74762C63.0051 7.6861 63.0769 7.65533 63.2 7.65533C63.446 7.65533 63.5999 7.6861 63.6614 7.74762C63.1487 9.16266 62.8718 10.0445 62.8308 10.3931C62.5437 10.3931 62.1694 10.388 61.708 10.3777C61.2568 10.3777 60.7185 10.3726 60.093 10.3624C59.4675 10.3521 58.9446 10.3419 58.5242 10.3316C58.114 10.3214 57.7961 10.3214 57.5706 10.3316L55.325 10.4239ZM67.7373 10.4547C67.1733 10.4547 66.6555 10.306 66.1838 10.0086C65.7122 9.71124 65.3328 9.31647 65.0457 8.82428C64.7688 8.32184 64.6304 7.763 64.6304 7.14777C64.6304 6.51202 64.7432 5.93268 64.9688 5.40973C65.2046 4.87653 65.543 4.45099 65.9839 4.13312C66.4351 3.81525 66.9785 3.65631 67.6143 3.65631C68.7422 3.65631 69.5215 3.91779 69.9521 4.44073C69.9521 5.12775 69.7625 5.47125 69.3831 5.47125C69.2087 5.47125 69.0754 5.43536 68.9832 5.36359C68.8909 5.28156 68.7729 5.138 68.6294 4.93292C68.3115 4.46124 67.9321 4.2254 67.4912 4.2254C67.0708 4.2254 66.6863 4.42535 66.3376 4.82526C65.9993 5.22516 65.8301 5.81989 65.8301 6.60944C65.8301 7.42975 66.03 8.11163 66.4299 8.65509C66.8401 9.19855 67.4041 9.47028 68.1218 9.47028C68.5525 9.47028 68.9114 9.40875 69.1985 9.28571C69.4958 9.1524 69.7112 9.03448 69.8445 8.93195L69.9521 8.85504C70.0137 8.85504 70.0444 8.92169 70.0444 9.05499C70.0444 9.12677 70.0137 9.21906 69.9521 9.33185C69.7471 9.61896 69.4446 9.88043 69.0447 10.1163C68.6448 10.3419 68.209 10.4547 67.7373 10.4547ZM72.5208 10.47C72.0491 10.47 71.6594 10.347 71.3518 10.1009C71.0442 9.84454 70.8904 9.46515 70.8904 8.96271C70.8904 8.34747 71.2903 7.83478 72.0901 7.42462C72.4387 7.25031 72.7822 7.11188 73.1206 7.00934C73.4692 6.9068 73.8179 6.78888 74.1665 6.65558C74.2588 6.62482 74.3049 6.54791 74.3049 6.42487V5.2713C74.3049 4.94318 74.2024 4.69196 73.9973 4.51764C73.7922 4.33307 73.5461 4.24078 73.259 4.24078C72.9514 4.24078 72.6951 4.34845 72.49 4.56378C72.2849 4.76886 72.1824 5.04059 72.1824 5.37897C72.1824 5.73785 71.9722 5.9173 71.5518 5.9173C71.2544 5.9173 71.0544 5.81989 70.9519 5.62506C70.9519 5.40973 71.0391 5.18927 71.2134 4.96368C71.3979 4.72784 71.6338 4.51251 71.9209 4.31769C72.208 4.12286 72.5208 3.96393 72.8591 3.84088C73.2078 3.71783 73.5513 3.65631 73.8896 3.65631C74.4536 3.65631 74.8586 3.79474 75.1047 4.07159C75.3508 4.3382 75.4739 4.77399 75.4739 5.37897V8.93195C75.4739 9.14728 75.5303 9.32672 75.6431 9.47028C75.7559 9.61383 75.9097 9.68561 76.1045 9.68561C76.2378 9.68561 76.4172 9.61383 76.6428 9.47028C76.6838 9.47028 76.7043 9.51129 76.7043 9.59332C76.7043 9.72662 76.6787 9.83429 76.6274 9.91632C76.207 10.2752 75.8481 10.4547 75.5508 10.4547C75.3149 10.4547 75.0894 10.3572 74.874 10.1624C74.6587 9.96759 74.51 9.76251 74.428 9.54718C74.3767 9.5882 74.3101 9.64459 74.228 9.71637C74.1562 9.77789 74.0947 9.82916 74.0435 9.87018C73.8281 10.0342 73.5923 10.1778 73.3359 10.3008C73.0898 10.4136 72.8181 10.47 72.5208 10.47ZM73.1052 9.59332C73.3923 9.59332 73.6641 9.51129 73.9204 9.34723C74.1768 9.18317 74.3049 9.00885 74.3049 8.82428V7.24005C74.0383 7.34259 73.782 7.43488 73.5359 7.51691C73.3 7.59894 73.1104 7.66559 72.9668 7.71686C72.7822 7.78864 72.6028 7.91681 72.4285 8.10138C72.2644 8.28595 72.1824 8.49615 72.1824 8.73199C72.1824 9.03961 72.2747 9.26007 72.4592 9.39337C72.6541 9.52667 72.8694 9.59332 73.1052 9.59332ZM77.3657 10.4085C77.3247 10.3675 77.3042 10.2803 77.3042 10.147C77.3042 10.024 77.3247 9.96246 77.3657 9.96246C77.4478 9.96246 77.5605 9.94708 77.7041 9.91632C77.8477 9.88556 77.981 9.84454 78.104 9.79327C78.2271 9.742 78.2937 9.69586 78.304 9.65485C78.345 9.51129 78.3706 9.34723 78.3809 9.16266C78.4014 8.97809 78.4116 8.78326 78.4116 8.57819V5.6712C78.4116 5.28156 78.3398 5.0047 78.1963 4.84064C78.0938 4.71759 77.9707 4.63556 77.8271 4.59454C77.6938 4.55353 77.5708 4.53302 77.458 4.53302C77.3555 4.52277 77.3042 4.50739 77.3042 4.48688C77.3042 4.24078 77.335 4.11261 77.3965 4.10236C78.5142 3.92804 79.1602 3.81525 79.3345 3.76398L79.5959 3.68707C79.637 3.67682 79.6626 3.71783 79.6729 3.81012C79.6831 3.9024 79.6831 3.96906 79.6729 4.01007L79.5806 4.77911C79.7651 4.50226 80.0164 4.24591 80.3342 4.01007C80.6624 3.76398 80.9854 3.64093 81.3032 3.64093C81.8979 3.64093 82.2979 3.78961 82.5029 4.08698C82.5029 4.44586 82.4465 4.70734 82.3337 4.8714C82.2209 5.03546 82.0825 5.11749 81.9185 5.11749C81.7339 5.11749 81.5647 5.03033 81.4109 4.85602C81.2571 4.6817 81.0469 4.59454 80.7803 4.59454C80.5752 4.59454 80.3804 4.66632 80.1958 4.80988C80.0112 4.94318 79.8625 5.11749 79.7498 5.33282C79.6472 5.5379 79.5959 5.75323 79.5959 5.97882V8.28595C79.5959 8.58331 79.6062 8.84479 79.6267 9.07037C79.6472 9.29596 79.678 9.49078 79.719 9.65485C79.7395 9.69586 79.8113 9.742 79.9343 9.79327C80.0574 9.84454 80.1907 9.88556 80.3342 9.91632C80.488 9.94708 80.5957 9.96246 80.6572 9.96246C80.688 9.96246 80.7085 10.024 80.7188 10.147C80.729 10.2701 80.7239 10.3572 80.7034 10.4085L79.0422 10.3316L77.3657 10.4085ZM86.3174 10.4547C85.7534 10.4547 85.2356 10.306 84.7639 10.0086C84.2922 9.71124 83.9128 9.31647 83.6257 8.82428C83.3489 8.32184 83.2104 7.763 83.2104 7.14777C83.2104 6.42999 83.3438 5.80963 83.6104 5.28668C83.877 4.76373 84.241 4.36383 84.7024 4.08698C85.1638 3.79987 85.6816 3.65631 86.2559 3.65631C86.7275 3.65631 87.1428 3.7486 87.5017 3.93317C87.8606 4.10748 88.1375 4.33307 88.3323 4.60992C88.5168 4.89703 88.6501 5.18927 88.7322 5.48663C88.8245 5.77374 88.8706 6.06085 88.8706 6.34796C88.8706 6.55304 88.8398 6.68121 88.7783 6.73248C88.7168 6.7735 88.5989 6.79401 88.4246 6.79401H84.5486C84.4666 6.79401 84.4255 6.81964 84.4255 6.87091C84.4255 7.30157 84.5127 7.71686 84.687 8.11676C84.8613 8.50641 85.1177 8.82941 85.4561 9.08575C85.7944 9.3421 86.2097 9.47028 86.7019 9.47028C87.1326 9.47028 87.4915 9.40875 87.7786 9.28571C88.0759 9.1524 88.2913 9.03448 88.4246 8.93195L88.5322 8.85504C88.5938 8.85504 88.6245 8.92169 88.6245 9.05499C88.6245 9.12677 88.5938 9.21906 88.5322 9.33185C88.3271 9.61896 88.0247 9.88043 87.6248 10.1163C87.2249 10.3419 86.7891 10.4547 86.3174 10.4547ZM84.5486 6.14801H87.5479C87.5991 6.14801 87.6248 6.09674 87.6248 5.9942C87.6248 5.76862 87.5632 5.52252 87.4402 5.25592C87.3274 4.97906 87.1531 4.7381 86.9172 4.53302C86.6814 4.32794 86.384 4.2254 86.0251 4.2254C85.697 4.2254 85.415 4.3382 85.1792 4.56378C84.9434 4.77911 84.7639 5.03033 84.6409 5.31744C84.5178 5.5943 84.4563 5.83527 84.4563 6.04034C84.4563 6.11212 84.4871 6.14801 84.5486 6.14801Z" fill="black"/>
</svg>
